<?xml version="1.0" encoding="UTF-8"?>
<svg id="Calque_2" data-name="Calque 2" xmlns="http://www.w3.org/2000/svg" viewBox="0 0 350 72.35">
  <defs>
    <style>
      .cls-1 {
        fill: #fff;
      }

      .cls-2 {
        fill: #45b56e;
      }

      .cls-3 {
        fill: #73c892;
      }

      .cls-4 {
        fill: #062913;
      }
    </style>
  </defs>
  <g id="Layer_1" data-name="Layer 1">
    <g id="logo_texte_et_icône" data-name="logo texte et icône">
      <g>
        <path class="cls-2" d="M63.45,12.34v-6.44c0-1.44-.52-2.76-1.38-3.79-.06-.07-.13-.15-.19-.22-.02-.02-.04-.04-.06-.06-.05-.05-.1-.11-.15-.16-.02-.02-.05-.05-.08-.07-.05-.05-.1-.1-.16-.14-.01-.01-.03-.03-.05-.04-.06-.06-.12-.11-.19-.16-.02-.02-.05-.04-.07-.05-.06-.05-.13-.1-.2-.14-.01-.01-.02-.02-.03-.02-.07-.05-.15-.1-.22-.15-.1-.07-.21-.13-.31-.18-.09-.05-.17-.09-.26-.14,0,0-.01,0-.02-.01-.07-.03-.14-.06-.21-.09-.03-.01-.06-.02-.09-.04-.07-.03-.14-.06-.22-.08-.08-.03-.16-.06-.23-.08-.02,0-.04-.01-.06-.02-.16-.05-.33-.09-.5-.13-.02,0-.05-.01-.07-.01-.01,0-.03,0-.05,0-.06-.01-.12-.02-.18-.03-.05-.01-.11-.01-.17-.02-.04,0-.09-.01-.13-.02-.1,0-.19-.02-.29-.02-.02,0-.03,0-.05,0-.1,0-.19,0-.29,0H5.92C2.65,0,0,2.65,0,5.92v60.53c0,1.44.52,2.76,1.38,3.79.06.07.12.15.19.22.02.02.04.04.06.06.05.05.1.11.15.16.02.02.05.05.08.07.05.05.1.1.16.14.01.02.03.03.05.04.06.06.13.11.19.16.02.02.04.04.07.05.06.05.13.1.2.14.01.01.02.02.03.02.08.05.15.1.22.15.1.07.21.13.31.18.08.05.17.09.26.14,0,0,.01,0,.02.01.07.03.14.06.21.09.02.01.05.02.08.04.07.03.15.06.22.08.08.03.16.06.24.08.02,0,.04.01.06.02.16.05.33.09.5.13.02,0,.05.01.07.01.01,0,.03,0,.04,0,.06.01.13.02.19.03.03,0,.06.01.09.01.08.01.16.02.23.03.09,0,.18.02.26.02.02,0,.04,0,.05,0,.09,0,.19,0,.29,0h51.64c3.26,0,5.91-2.65,5.91-5.9v-6.44c-13.14,0-23.83-10.69-23.83-23.83s10.69-23.83,23.83-23.83ZM19.18,7.61c.45-.45,1.07-.73,1.75-.73h3.59c1.37,0,2.48,1.11,2.48,2.48,0,.69-.28,1.31-.73,1.75-.45.45-1.07.73-1.75.73h-3.59c-1.37,0-2.48-1.11-2.48-2.48,0-.68.28-1.3.73-1.75ZM14.92,17.18c.45-.45,1.07-.73,1.75-.73h7.85c1.37,0,2.48,1.11,2.48,2.48,0,.69-.28,1.31-.73,1.75-.45.45-1.07.73-1.75.73h-7.85c-1.37,0-2.48-1.11-2.48-2.48,0-.68.28-1.3.73-1.75ZM10.63,26.74c.45-.45,1.07-.73,1.75-.73h12.14c1.37,0,2.48,1.11,2.48,2.48,0,.69-.28,1.31-.73,1.75-.45.45-1.07.73-1.75.73h-12.14c-1.37,0-2.48-1.11-2.48-2.48,0-.68.28-1.3.73-1.75ZM7.25,36.3c.45-.45,1.07-.73,1.75-.73h15.52c1.37,0,2.48,1.11,2.48,2.48,0,.69-.28,1.31-.73,1.75-.45.45-1.07.73-1.75.73h-15.52c-1.37,0-2.48-1.11-2.48-2.48,0-.68.28-1.3.73-1.75ZM6.52,47.39c0-1.37,1.11-2.48,2.48-2.48h21.45c1.37,0,2.48,1.11,2.48,2.48h0c0,1.37-1.11,2.48-2.48,2.48H9c-1.37,0-2.48-1.11-2.48-2.48h0ZM40.68,54.25c1.37,0,2.48,1.11,2.48,2.48,0,.69-.28,1.31-.73,1.75s-1.07.73-1.75.73H9c-1.37,0-2.48-1.11-2.48-2.48,0-.68.28-1.3.73-1.75.45-.45,1.07-.73,1.75-.73h31.68ZM61.09,40c-.07-.05-.14-.09-.21-.14-.03-.02-.07-.05-.1-.08-.04-.03-.09-.07-.13-.1-.04-.03-.08-.07-.13-.1-.02-.02-.04-.04-.06-.06-.06-.05-.12-.11-.18-.17-.03-.03-.07-.07-.1-.1-.02-.02-.04-.04-.05-.06-.05-.06-.11-.12-.16-.18-.05-.06-.09-.11-.14-.17-.03-.04-.06-.08-.08-.12-.03-.05-.07-.1-.1-.15,0,0,0,0,0,0-.03-.05-.06-.1-.09-.16,0,0-.01,0-.01,0l-2.22,3.9s0,.01,0,.01l3.89-2.24s0,0,0-.01h0s-.08-.05-.13-.08ZM49.29,35.26h-.04s.05,0,.07,0c-.01,0-.02,0-.03,0ZM49.35,35.26c.23.02.45.13.61.29-.15-.17-.37-.28-.61-.29ZM48.49,43.75h0l3.43-1.98-3.44,1.98ZM58.97,35.65h0s0-.08.01-.12c0,.04-.01.08-.02.12ZM59.18,34.71c.06-.18.13-.36.21-.52-.08.17-.15.34-.21.52ZM62.71,48.39c.05-.07.12-.13.19-.19-.07.05-.14.12-.19.19Z"/>
        <path class="cls-3" d="M65.86,14.11h-.02c-.79-.09-1.59-.13-2.38-.13-12.24,0-22.19,9.95-22.19,22.19s9.95,22.19,22.19,22.19c.81,0,1.6-.03,2.38-.13h.02c11.11-1.2,19.79-10.63,19.79-22.06s-8.68-20.86-19.79-22.06ZM79.57,45.48s-.03.05-.05.07c-1.61,2.76-3.93,5.07-6.69,6.69-.02.02-.06.03-.07.05-.02.02-.05.02-.07.04-2.86,1.64-6.04,2.46-9.23,2.46h0c-3.19,0-6.38-.82-9.24-2.46-.02-.02-.05-.02-.07-.04-.03-.02-.05-.03-.07-.05-2.76-1.61-5.07-3.93-6.69-6.69-.02-.02-.04-.05-.05-.07-.02-.02-.02-.03-.04-.05v-.02c-3.28-5.72-3.28-12.76,0-18.48v-.02s.02-.03.04-.05c.02-.02.04-.05.05-.07,1.61-2.76,3.93-5.07,6.69-6.69.02-.02.05-.03.07-.05.02-.02.05-.03.07-.03,2.86-1.64,6.05-2.46,9.24-2.46h.01c3.18,0,6.36.82,9.21,2.46.02.02.06.02.07.03.03.02.05.04.07.05,2.76,1.61,5.07,3.93,6.69,6.69.02.02.04.06.05.07.02.02.02.04.04.05v.02c3.3,5.74,3.3,12.76.02,18.5-.02.02-.02.03-.03.05Z"/>
        <path class="cls-2" d="M62.53,19.42s0,0,0,.01h0s0-.01,0-.01ZM62.52,52.93h0s0,0,0,0h0ZM55.88,21.21s0,0,0,0c0,0,0,0,0,0h0ZM55.85,51.14s0,0,.01,0c0,0,0,0,0,0h0ZM54.29,22.12s0,0,0,0h0s0,0,0,0ZM54.28,50.21h0s0,0-.01,0c0,0,0,0,0,0ZM49.42,26.99s0,0,0,0l3.44,1.99-3.43-1.99s0,0,0,0ZM50.17,35.91s.01.06.02.08c0,0,0-.01,0-.02,0-.02-.01-.05-.02-.07ZM50.17,35.91c-.02-.08-.06-.16-.1-.23.05.07.08.15.1.23ZM49.4,45.34s0,0,0,0h0s0,0,0,0ZM48.5,28.6s0,0,.01,0h0s0,0,0,0ZM48.49,43.75h0s0,0-.01,0c0,0,0,0,0,0ZM46.71,35.26h.01s0,0,0-.01c0-.15.02-.29.03-.44-.01.15-.02.3-.03.45ZM46.7,37.1s0,0,0,0h0Z"/>
        <path class="cls-2" d="M74.94,41.71s.02.02.03.02l3.44,1.99c1.06-2.08,1.67-4.34,1.79-6.67h-2.6c-.5.03-.92-.38-.93-.88,0-.5.41-.91.91-.91h2.6c-.12-2.33-.73-4.59-1.79-6.67l-3.44,1.99c-.45.25-1,.11-1.25-.34-.25-.45-.11-1,.34-1.25l3.44-1.99c-1.27-1.93-2.94-3.6-4.88-4.88l-1.31,2.26c-.16.29-.47.47-.79.47-.5,0-.91-.41-.91-.91,0-.16.03-.32.12-.47l1.31-2.26c-2.08-1.06-4.34-1.67-6.67-1.79v3.98c0,.5-.41.91-.91.91h0s-.01,0-.02,0c-.03,0-.05,0-.08,0-.45-.05-.81-.44-.81-.91v-3.97s0,0,0-.01c-.35.02-.7.05-1.05.09-.08,0-.16.02-.25.03-.33.04-.67.1-1,.16-.24.05-.47.1-.7.15-.56.14-1.12.3-1.66.49-.27.1-.54.2-.81.31-.4.16-.8.35-1.19.54,0,0,0,0,0,0l1.31,2.26c.27.43.12,1-.31,1.25-.43.27-1,.13-1.25-.31,0-.02-.02-.02-.02-.03l-1.3-2.25s0,0,0,0c-.61.4-1.18.83-1.73,1.3-.22.19-.43.38-.64.58-.94.9-1.78,1.9-2.5,2.98,0,0,0,0,0,0l3.43,1.99c.45.25.59.81.34,1.25-.25.45-.81.59-1.25.34l-3.43-1.98s0,0-.01,0c-.13.26-.25.52-.37.78-.06.13-.12.26-.17.4s-.11.27-.16.4c-.1.27-.2.54-.29.82-.03.09-.06.19-.09.29-.27.87-.46,1.76-.58,2.66-.02.14-.03.29-.05.43-.02.14-.03.29-.04.43-.01.15-.02.29-.03.44,0,0,0,.01,0,.01h2.57s.02,0,.03,0c.01,0,.02,0,.03,0,.24.01.46.12.61.29.04.04.07.08.1.13.05.07.08.14.1.23,0,.02.01.04.02.07,0,0,0,.01,0,.02,0,.03.01.06.01.09,0,.04,0,.08,0,.13,0,.05,0,.09-.01.13,0,0,0,.01,0,.02,0,.01,0,.02,0,.03-.01.04-.02.08-.04.12,0,.01-.01.03-.02.05-.02.04-.04.09-.07.13-.02.02-.03.05-.05.07-.02.02-.04.05-.06.07-.17.17-.39.27-.64.27h-2.59s0,0,0,0c.02.29.04.58.07.86.02.15.03.29.05.43.06.43.13.86.22,1.29.09.42.2.84.32,1.26.04.14.08.28.13.41.27.82.6,1.62.99,2.4,0,0,0,0,.01,0l3.44-1.98c.43-.27,1-.13,1.25.3.27.43.13,1-.31,1.25-.02,0-.02.02-.03.02l-3.43,1.98s0,0,0,0c.16.24.32.48.49.71.09.12.17.23.26.35,1.06,1.38,2.33,2.57,3.75,3.56.12.08.24.16.36.24,0,0,.01,0,.01,0l1.3-2.25c.27-.43.83-.57,1.25-.3.43.25.58.81.32,1.24l-1.3,2.25h0s0,.01,0,.01c.26.13.52.25.78.37.13.06.27.12.4.17.4.17.81.32,1.22.45.41.13.83.25,1.25.35.23.06.47.11.7.15.23.05.46.09.69.12.2.03.4.06.6.08.33.04.67.07,1.01.09,0,0,0,0,0-.01v-3.99c0-.06,0-.12.02-.18,0-.05.02-.09.04-.13.01-.04.03-.08.06-.12h0s.05-.08.07-.11c.05-.07.12-.14.19-.19.03-.03.07-.05.11-.07h0s.08-.04.12-.06c.04-.02.09-.03.13-.04.06-.01.12-.02.18-.02h.02c.5.01.9.42.9.91v3.98c2.33-.13,4.59-.74,6.67-1.79l-1.31-2.26c-.25-.45-.09-1,.36-1.25.43-.23.97-.09,1.24.32l1.31,2.26c1.94-1.27,3.6-2.94,4.88-4.88l-3.44-1.99c-.45-.25-.61-.81-.36-1.25.25-.45.81-.61,1.26-.36ZM72.88,28l-4.97,8.67c-.23,2.08-1.88,3.73-3.96,3.96l-.5.29h0s-8.16,4.66-8.16,4.66c-.15.09-.31.13-.47.13-.5,0-.91-.41-.91-.91,0-.16.04-.32.13-.46l4.95-8.68s.01-.08.02-.12c0-.04.01-.08.02-.12.04-.24.1-.48.18-.7.06-.18.13-.36.21-.52,0,0,0,0,0,0,.07-.15.15-.29.24-.43.05-.07.09-.15.15-.22.07-.1.15-.2.23-.29.72-.85,1.76-1.42,2.94-1.55l.5-.28h0s8.17-4.66,8.17-4.66c.45-.25,1.01-.09,1.26.34.16.29.16.63,0,.91Z"/>
        <path class="cls-4" d="M69.62,30.01l-2.26,3.94c-.39-.7-.99-1.27-1.68-1.68l3.94-2.26Z"/>
        <path class="cls-4" d="M61.23,40.08l-3.93,2.26,2.24-3.94c.2.36.45.68.73.95.29.29.61.54.95.73Z"/>
        <g id="_205368408" data-name=" 205368408">
          <path class="cls-3" d="M66.11,36.17v.16c-.07,1.43-1.24,2.53-2.66,2.53-.04,0-.08,0-.12,0-1.43-.07-2.55-1.25-2.53-2.69v-.16c.07-1.34,1.15-2.42,2.49-2.49h.16c1.47,0,2.66,1.18,2.66,2.65Z"/>
        </g>
      </g>
      <g>
        <path class="cls-1" d="M142.18,41.14c-.48,1.87-1.19,3.62-2.16,5.26-1.91,3.18-4.44,5.72-7.6,7.61-3.16,1.89-6.67,2.83-10.52,2.83h-.32c-3.72-.06-7.11-1-10.18-2.83-3.16-1.89-5.69-4.41-7.58-7.58-1.9-3.16-2.84-6.66-2.84-10.51s.94-7.35,2.84-10.51c1.89-3.16,4.41-5.69,7.58-7.58,3.07-1.83,6.46-2.77,10.18-2.83h.32c3.85,0,7.36.94,10.52,2.83,3.16,1.89,5.69,4.4,7.6,7.55.73,1.31,1.34,2.65,1.81,4.02h-8.33c-.57-1.01-1.31-1.96-2.21-2.87-2.57-2.57-5.7-3.86-9.39-3.86-.1,0-.22,0-.32,0-3.51.07-6.51,1.35-9.03,3.85-2.59,2.58-3.89,5.71-3.89,9.39s1.3,6.77,3.89,9.36c2.52,2.52,5.52,3.81,9.03,3.88.1,0,.22,0,.32,0,3.69,0,6.82-1.31,9.39-3.92,1.24-1.24,2.19-2.61,2.86-4.11h8.04Z"/>
        <path class="cls-1" d="M171.78,56.4h-7.38v-15.76c0-1.1-.15-2.38-.45-3.81-.3-1.44-1.07-2.56-2.31-3.36-.84-.47-1.74-.7-2.71-.7-.9,0-1.77.22-2.61.65-.9.54-1.57,1.28-2.01,2.23-.44.95-.71,1.97-.83,3.04-.12,1.07-.18,2.02-.18,2.86v14.86h-7.38V16.55h7.13v11.59c1.14-1.04,2.28-1.77,3.41-2.21,1.14-.43,2.34-.65,3.61-.65s2.45.17,3.64.5c1.19.33,2.2.82,3.04,1.46,1.61,1.27,2.77,2.55,3.49,3.84.72,1.29,1.15,2.63,1.3,4.02.15,1.39.23,2.89.23,4.49v16.81Z"/>
        <path class="cls-1" d="M184.43,56.4h-7.38v-30.31h6.58v2.46c2.14-1.91,4.6-2.99,7.38-3.26v7.33c-2.04.23-3.54.79-4.49,1.66-.95.87-1.54,1.95-1.76,3.24-.22,1.29-.33,2.64-.33,4.04v14.86Z"/>
        <path class="cls-1" d="M254.69,56.4h-7.38v-15.61c0-.8-.06-1.69-.18-2.66-.12-.97-.41-1.9-.88-2.79-.47-.89-1.19-1.63-2.16-2.23-.8-.43-1.67-.65-2.61-.65-1.04,0-2.04.27-3.01.8-1.14.77-1.85,1.81-2.13,3.11-.28,1.31-.43,2.64-.43,4.02v16.01h-7.38v-30.31h6.58v2.31c2.24-2.07,4.92-3.11,8.03-3.11,1.77,0,3.45.37,5.02,1.1,2.04,1.04,3.53,2.38,4.47,4.04.94,1.66,1.51,3.36,1.73,5.12.22,1.76.33,3.27.33,4.54v16.31Z"/>
        <path class="cls-1" d="M274.52,57.25c-4.42,0-8.2-1.56-11.34-4.69-3.15-3.13-4.72-6.9-4.72-11.32s1.57-8.22,4.72-11.32c3.14-3.09,6.93-4.64,11.34-4.64s8.25,1.55,11.39,4.64c3.14,3.1,4.72,6.87,4.72,11.32s-1.57,8.19-4.72,11.32c-3.15,3.13-6.94,4.69-11.39,4.69ZM274.52,50.02c2.44,0,4.53-.86,6.27-2.58,1.74-1.72,2.61-3.79,2.61-6.2s-.87-4.51-2.61-6.2c-1.74-1.69-3.83-2.53-6.27-2.53s-4.48.85-6.22,2.53c-1.74,1.69-2.61,3.76-2.61,6.2s.87,4.48,2.61,6.2c1.74,1.72,3.81,2.58,6.22,2.58Z"/>
        <path class="cls-1" d="M208.56,57.25c-4.42,0-8.2-1.56-11.34-4.69-3.15-3.13-4.72-6.9-4.72-11.32s1.57-8.22,4.72-11.32c3.14-3.09,6.93-4.64,11.34-4.64s8.25,1.55,11.39,4.64c3.14,3.1,4.72,6.87,4.72,11.32s-1.57,8.19-4.72,11.32c-3.15,3.13-6.94,4.69-11.39,4.69ZM208.56,50.02c2.44,0,4.53-.86,6.27-2.58,1.74-1.72,2.61-3.79,2.61-6.2s-.87-4.51-2.61-6.2c-1.74-1.69-3.83-2.53-6.27-2.53s-4.48.85-6.22,2.53c-1.74,1.69-2.61,3.76-2.61,6.2s.87,4.48,2.61,6.2c1.74,1.72,3.81,2.58,6.22,2.58Z"/>
        <path class="cls-1" d="M308.9,57.25c-4.38,0-8.14-1.57-11.27-4.72-3.13-3.14-4.69-6.91-4.69-11.29s1.56-8.18,4.69-11.29c3.13-3.11,6.88-4.67,11.27-4.67,3.28,0,6.04.95,8.28,2.86v-11.59h7.43v39.85h-7.43v-2.56c-1,.97-2.23,1.78-3.66,2.43-1.44.65-2.98.98-4.62.98ZM309,49.62c2.38,0,4.39-.82,6.05-2.46,1.66-1.64,2.48-3.63,2.48-5.97s-.83-4.39-2.48-6.05-3.67-2.48-6.05-2.48-4.34.83-6,2.48c-1.66,1.66-2.48,3.67-2.48,6.05s.83,4.33,2.48,5.97c1.66,1.64,3.65,2.46,6,2.46Z"/>
        <path class="cls-1" d="M337.35,23.22h-7.38v-6.42h7.38v6.42ZM337.35,56.4h-7.38v-30.31h7.38v30.31Z"/>
        <path class="cls-1" d="M350,56.4h-7.38V16.55h7.38v39.85Z"/>
      </g>
    </g>
  </g>
</svg>