<?xml version="1.0" encoding="UTF-8"?>
<svg id="Calque_2" data-name="Calque 2" xmlns="http://www.w3.org/2000/svg" viewBox="0 0 416.98 352.24">
  <defs>
    <style>
      .cls-1 {
        fill: #dd2d4a;
      }

      .cls-2 {
        fill: #f29cbb;
      }

      .cls-3 {
        fill: #f49cbb;
      }

      .cls-4 {
        fill: #880d1e;
      }
    </style>
  </defs>
  <g id="Layer_1" data-name="Layer 1">
    <g id="logo_avec_icône_seule" data-name="logo avec icône seule">
      <path class="cls-2" d="M308.94,60.09v-31.34c0-7.01-2.52-13.44-6.71-18.44-.3-.36-.61-.71-.93-1.05-.08-.1-.18-.2-.29-.3-.22-.26-.48-.52-.75-.77-.12-.12-.25-.24-.37-.35-.25-.25-.51-.48-.77-.7-.07-.07-.14-.14-.23-.2-.29-.27-.6-.52-.91-.76-.12-.09-.23-.18-.34-.26-.3-.24-.63-.47-.95-.69-.05-.05-.1-.09-.16-.12-.36-.26-.72-.49-1.09-.71-.5-.32-1-.62-1.52-.9-.42-.23-.83-.45-1.28-.66-.03-.02-.07-.03-.1-.05-.32-.16-.67-.31-1-.45-.15-.07-.29-.12-.42-.18-.34-.15-.7-.28-1.06-.41-.38-.14-.76-.27-1.14-.4-.11-.03-.2-.06-.31-.09-.79-.24-1.6-.46-2.43-.63-.11-.03-.23-.05-.33-.07-.07-.02-.15-.03-.22-.04-.29-.06-.59-.11-.9-.16-.26-.05-.52-.07-.83-.12-.21-.03-.43-.06-.65-.08-.47-.04-.94-.09-1.41-.11-.09-.01-.17-.01-.25-.01-.47-.03-.93-.04-1.41-.04H28.81C12.9,0,0,12.9,0,28.8v294.69c0,7.01,2.54,13.44,6.72,18.44.29.36.6.71.92,1.05.09.1.18.2.29.3.24.26.49.52.75.77.12.12.24.24.37.35.25.25.51.48.77.7.07.08.16.14.23.2.31.27.61.52.93.76.09.09.2.18.32.26.31.24.63.47.95.69.06.05.11.09.17.12.37.26.71.49,1.08.71.49.32,1,.62,1.53.9.41.23.83.45,1.27.66.04.02.06.03.11.05.32.16.66.31,1.01.45.12.07.26.12.4.18.35.15.71.28,1.06.41.38.14.76.27,1.16.4.09.03.19.06.3.09.78.25,1.6.46,2.42.63.11.03.23.05.35.07.06.02.13.03.2.04.3.06.61.11.92.16.15.03.31.05.45.07.38.06.76.1,1.14.14.43.04.86.08,1.29.1.09.01.18.01.25.01.46.03.93.04,1.4.04h251.42c15.86,0,28.76-12.9,28.76-28.75v-31.34c-63.98-.01-116.03-52.05-116.03-116.03s52.05-116.02,116.03-116.03ZM93.39,37.07c2.19-2.19,5.2-3.54,8.54-3.54h17.47c6.67,0,12.08,5.41,12.08,12.07,0,3.34-1.35,6.36-3.54,8.54-2.19,2.19-5.21,3.54-8.54,3.54h-17.47c-6.67,0-12.07-5.41-12.07-12.08,0-3.33,1.35-6.35,3.53-8.53ZM72.64,83.63c2.19-2.19,5.21-3.54,8.54-3.54h38.22c6.67,0,12.08,5.41,12.08,12.07,0,3.34-1.35,6.36-3.54,8.54-2.19,2.19-5.21,3.54-8.54,3.54h-38.22c-6.67,0-12.07-5.41-12.07-12.08,0-3.33,1.35-6.35,3.53-8.53ZM51.77,130.19c2.18-2.19,5.2-3.54,8.54-3.54h59.09c6.67,0,12.08,5.41,12.08,12.07,0,3.34-1.35,6.36-3.54,8.54-2.19,2.19-5.21,3.54-8.54,3.54h-59.09c-6.67,0-12.08-5.41-12.08-12.08,0-3.33,1.35-6.35,3.54-8.53ZM35.3,176.75c2.19-2.19,5.21-3.54,8.54-3.54h75.56c6.67,0,12.08,5.41,12.08,12.07,0,3.34-1.35,6.36-3.54,8.54-2.19,2.19-5.21,3.54-8.54,3.54H43.84c-6.67,0-12.08-5.41-12.08-12.08,0-3.33,1.35-6.35,3.54-8.53ZM31.76,230.73c0-6.66,5.41-12.07,12.08-12.07h104.43c6.67,0,12.08,5.41,12.08,12.07h0c0,6.67-5.41,12.08-12.08,12.08H43.84c-6.67,0-12.08-5.41-12.08-12.07h0ZM198.07,264.11c6.67,0,12.07,5.41,12.07,12.07,0,3.34-1.35,6.36-3.53,8.54s-5.2,3.54-8.54,3.54H43.84c-6.67,0-12.08-5.41-12.08-12.08,0-3.33,1.35-6.35,3.54-8.53,2.19-2.19,5.21-3.54,8.54-3.54h154.23ZM297.45,194.73c-.35-.22-.7-.45-1.04-.7-.17-.12-.34-.24-.51-.37-.21-.16-.42-.32-.62-.49-.21-.16-.41-.33-.61-.51-.1-.09-.2-.18-.3-.27-.3-.26-.59-.54-.88-.82-.17-.16-.34-.32-.5-.5-.09-.09-.18-.18-.26-.28-.26-.28-.52-.57-.77-.87-.23-.27-.45-.54-.66-.83-.14-.19-.27-.38-.4-.57-.17-.24-.32-.48-.47-.72-.01-.01-.02-.02-.03-.03-.15-.25-.3-.5-.44-.76-.01-.03-.06-.03-.07,0l-10.79,18.99s0,.06.03.07l18.93-10.9s.03-.04,0-.06h0c-.21-.13-.41-.25-.61-.38ZM240,171.67h-.2c.12,0,.24.01.35.01-.05-.01-.1-.01-.15-.01ZM240.29,171.69c1.14.12,2.19.63,2.96,1.42-.74-.82-1.79-1.35-2.96-1.42ZM236.1,213.01h.02l16.72-9.66-16.74,9.66ZM287.12,173.59h.01c.02-.21.04-.41.07-.6-.03.2-.05.4-.08.6ZM288.15,168.98c.3-.88.65-1.73,1.04-2.55-.4.82-.75,1.67-1.04,2.55ZM305.3,235.6c.26-.34.57-.65.91-.91-.35.25-.66.56-.91.91Z"/>
      <path class="cls-1" d="M320.64,68.7h-.09c-3.83-.44-7.76-.61-11.61-.61-59.59,0-108.02,48.43-108.02,108.03s48.43,108.03,108.02,108.03c3.93,0,7.78-.17,11.61-.61h.09c54.1-5.84,96.34-51.75,96.34-107.42s-42.24-101.58-96.34-107.42ZM387.4,221.41c-.1.09-.17.26-.26.35-7.86,13.44-19.12,24.7-32.55,32.55-.1.09-.27.17-.36.26-.08.09-.25.09-.34.18-13.91,7.97-29.42,11.96-44.95,11.97h-.04c-15.52,0-31.06-3.99-44.98-11.97-.1-.09-.26-.09-.36-.18-.17-.09-.26-.17-.34-.26-13.44-7.85-24.69-19.11-32.55-32.55-.08-.09-.18-.26-.26-.35-.1-.09-.1-.17-.18-.26v-.09c-15.97-27.84-15.97-62.13,0-89.97v-.09c.08-.08.08-.17.18-.26.08-.08.18-.26.26-.35,7.86-13.44,19.11-24.69,32.55-32.55.08-.08.26-.17.34-.26.1-.09.26-.17.36-.17,13.93-7.99,29.46-11.98,44.97-11.98h.05c15.49.02,30.97,4.01,44.85,11.98.1.08.27.08.36.17.17.09.26.18.34.26,13.44,7.86,24.7,19.11,32.55,32.55.1.09.19.27.26.35.1.09.1.18.18.26v.09c16.05,27.93,16.05,62.13.09,90.06-.09.09-.09.17-.17.26Z"/>
      <path class="cls-3" d="M304.46,94.53s.03.03.03.05v-.05h-.03ZM304.41,257.71v-.05s-.02.04-.04.05h.04ZM272.05,103.27s.01-.03.03-.04c-.01.01-.03.01-.04.02v.02ZM271.94,248.99s.03.02.05.02c-.02-.01-.03-.02-.03-.04l-.02.02ZM264.34,107.72s.03.01.04.02l-.02-.04s-.01.01-.02.02ZM264.26,244.45l.02-.04s-.03.03-.06.01c0,.01.03.02.04.03ZM240.63,131.42s-.02.01-.02.02l16.76,9.69-16.71-9.67s-.03-.02-.03-.04ZM244.26,174.83c.04.13.07.27.1.4,0-.03,0-.05-.01-.08-.02-.11-.05-.22-.09-.32ZM244.26,174.83c-.11-.4-.29-.77-.51-1.1.22.34.39.71.51,1.1ZM240.54,220.73s.01-.03.03-.04l-.04.02s0,0,0,.02ZM236.15,139.24s.03-.02.05-.01l-.03-.02s0,.02-.02.03ZM236.07,213.03l.03-.02s-.04-.01-.05-.02c.01.01.01.03.02.04ZM227.43,171.67h.05s-.04-.02-.04-.05c.04-.71.09-1.41.14-2.12-.06.72-.11,1.44-.15,2.17ZM227.36,180.61s.02-.04.04-.04h-.04v.04Z"/>
      <path class="cls-3" d="M364.89,203.08c.08,0,.08.09.16.09l16.76,9.69c5.14-10.12,8.11-21.12,8.72-32.46h-12.64c-2.45.17-4.46-1.84-4.54-4.28,0-2.44,2.01-4.45,4.44-4.45h12.65c-.6-11.34-3.56-22.34-8.71-32.46l-16.76,9.68c-2.19,1.23-4.88.53-6.1-1.65-1.23-2.19-.53-4.89,1.64-6.11l16.76-9.69c-6.2-9.42-14.3-17.54-23.74-23.74l-6.36,11c-.78,1.4-2.27,2.27-3.85,2.27-2.43,0-4.44-2.01-4.44-4.45,0-.79.17-1.57.6-2.27l6.38-11c-10.13-5.14-21.13-8.11-32.47-8.72v19.37c0,2.44-2.01,4.45-4.45,4.45h-.04s-.05,0-.08-.01c-.13,0-.25,0-.37-.02-2.21-.25-3.96-2.15-3.96-4.42v-19.32s-.01-.04-.03-.05c-1.72.09-3.43.24-5.13.45-.4.04-.8.09-1.2.15-1.63.21-3.24.48-4.85.8-1.15.22-2.29.47-3.43.74-2.73.66-5.43,1.46-8.08,2.4-1.32.47-2.63.97-3.92,1.51-1.95.8-3.88,1.69-5.77,2.65-.02.01-.03.02-.03.04l6.36,10.98c1.31,2.09.6,4.89-1.49,6.11-2.1,1.31-4.88.61-6.11-1.49,0-.08-.08-.08-.08-.17l-6.35-10.96s-.02-.02-.04-.02c-2.95,1.93-5.76,4.05-8.43,6.35-1.07.91-2.11,1.85-3.13,2.82-4.58,4.36-8.67,9.24-12.15,14.53,0,.02.01.03.03.04l16.71,9.67c2.18,1.22,2.88,3.92,1.66,6.11-1.23,2.18-3.92,2.88-6.11,1.65l-16.72-9.66s-.04,0-.05.01c-.63,1.26-1.24,2.52-1.81,3.81-.29.64-.57,1.29-.84,1.94s-.53,1.31-.79,1.97c-.5,1.31-.97,2.64-1.41,3.98-.15.46-.3.92-.44,1.39-1.3,4.23-2.24,8.57-2.83,12.97-.09.69-.17,1.39-.25,2.09-.08.7-.14,1.4-.2,2.11-.05.71-.1,1.41-.14,2.12,0,.03.02.05.04.05h12.52s.1,0,.15.01c.05,0,.1,0,.14.01,1.17.07,2.22.6,2.96,1.42.19.19.35.4.5.62.22.33.4.7.51,1.1.04.1.07.21.09.32.01.03.01.05.01.08.03.14.05.29.07.44.02.21.02.41.01.62,0,.22-.04.43-.07.64-.01.03-.01.07-.02.1-.02.05-.03.1-.04.15-.05.2-.11.4-.19.59-.03.07-.05.15-.09.22-.1.21-.21.42-.34.61-.08.12-.17.23-.26.34-.09.12-.19.23-.29.32-.81.81-1.92,1.31-3.14,1.31h-12.6s-.03.02-.04.04c.08,1.4.19,2.8.34,4.19.08.71.16,1.41.25,2.11.28,2.1.64,4.19,1.08,6.26.44,2.06.96,4.1,1.56,6.12.2.67.41,1.34.63,2.01,1.3,4,2.91,7.91,4.83,11.69.01.01.03.02.05.02l16.74-9.66c2.08-1.31,4.89-.61,6.1,1.48,1.31,2.09.61,4.89-1.49,6.11-.08,0-.08.09-.16.09l-16.72,9.66s-.03.02-.03.04c.77,1.18,1.57,2.34,2.4,3.47.42.57.84,1.14,1.28,1.7,5.16,6.7,11.34,12.53,18.26,17.34.57.4,1.15.79,1.74,1.18.03.02.05.01.06-.01l6.35-10.96c1.31-2.09,4.03-2.79,6.11-1.48,2.1,1.22,2.8,3.93,1.57,6.02l-6.34,10.96v.02s0,.03.02.04c1.25.64,2.51,1.24,3.79,1.81.65.29,1.31.57,1.97.84,1.95.81,3.92,1.54,5.92,2.19,2.01.65,4.04,1.23,6.09,1.72,1.13.27,2.28.52,3.43.74,1.12.23,2.25.42,3.38.59.96.15,1.93.28,2.9.39,1.63.19,3.26.33,4.9.42.02-.01.04-.03.04-.05v-19.41c0-.29.03-.58.09-.86.04-.22.1-.43.18-.64.07-.21.17-.41.27-.6h0c.1-.2.22-.38.35-.55.25-.35.56-.66.91-.91.17-.13.35-.25.54-.35h.01c.19-.1.39-.2.6-.27.21-.08.42-.14.64-.18.28-.06.57-.09.86-.09h.08c2.42.05,4.36,2.04,4.36,4.45v19.38c11.36-.62,22.35-3.58,32.47-8.73l-6.36-11c-1.24-2.18-.44-4.88,1.74-6.11,2.08-1.13,4.71-.43,6.02,1.58l6.36,10.99c9.44-6.19,17.54-14.31,23.74-23.74l-16.76-9.68c-2.17-1.22-2.96-3.93-1.74-6.11,1.22-2.18,3.92-2.97,6.12-1.75ZM354.85,136.33l-24.18,42.23c-1.14,10.13-9.16,18.15-19.29,19.29l-2.44,1.39-.04.03-39.74,22.66c-.71.44-1.49.61-2.28.61-2.44,0-4.45-2-4.45-4.45,0-.78.18-1.57.61-2.26l24.08-42.24c.03-.2.05-.4.08-.6.03-.2.05-.39.09-.59.19-1.18.48-2.32.86-3.42.29-.88.64-1.73,1.04-2.55,0-.01.01-.01.01-.01.35-.72.74-1.41,1.16-2.08.23-.36.46-.71.71-1.05.35-.49.72-.96,1.11-1.42,3.52-4.14,8.58-6.93,14.32-7.57l2.42-1.38h.02s39.79-22.7,39.79-22.7c2.19-1.22,4.9-.44,6.12,1.66.79,1.39.79,3.05,0,4.45Z"/>
      <path class="cls-4" d="M338.96,146.1l-11,19.2c-1.92-3.4-4.8-6.2-8.2-8.2l19.2-11Z"/>
      <path class="cls-4" d="M298.12,195.14l-19.11,11,10.91-19.2c.96,1.75,2.18,3.32,3.57,4.63,1.4,1.39,2.97,2.61,4.63,3.57Z"/>
      <g id="_205368408" data-name=" 205368408">
        <path class="cls-1" d="M321.87,176.12v.79c-.35,6.95-6.05,12.34-12.93,12.32-.21,0-.4-.01-.6-.02-6.98-.35-12.4-6.11-12.31-13.09v-.79c.34-6.54,5.58-11.78,12.13-12.13h.78c7.17,0,12.93,5.76,12.93,12.92Z"/>
      </g>
    </g>
  </g>
</svg>