<?xml version="1.0" encoding="UTF-8"?>
<svg id="Calque_2" data-name="Calque 2" xmlns="http://www.w3.org/2000/svg" xmlns:xlink="http://www.w3.org/1999/xlink" viewBox="0 0 347.89 103.73">
  <defs>
    <style>
      .cls-1 {
        fill: url(#New_Gradient_Swatch_5);
      }

      .cls-2 {
        fill: #fff;
      }

      .cls-3 {
        fill-rule: evenodd;
      }

      .cls-3, .cls-4 {
        fill: #39837a;
      }
    </style>
    <linearGradient id="New_Gradient_Swatch_5" data-name="New Gradient Swatch 5" x1="22.74" y1="51.06" x2="105.93" y2="51.06" gradientUnits="userSpaceOnUse">
      <stop offset="0" stop-color="#f8e800"/>
      <stop offset=".2" stop-color="#dedd08"/>
      <stop offset=".55" stop-color="#b6ce14"/>
      <stop offset=".83" stop-color="#9ec41c"/>
      <stop offset="1" stop-color="#95c11f"/>
    </linearGradient>
  </defs>
  <g id="Ensemble_de_logo" data-name="Ensemble de logo">
    <g id="Logo_plein_format_sur_fond_sombre" data-name="Logo plein format sur fond sombre">
      <g>
        <path class="cls-4" d="M169.9,55.19v-9.22c0-3.75.04-7.09.13-10,.09-2.92.23-5.85.41-8.78-.77.09-1.6.16-2.51.23-.9.07-1.92.11-3.05.11s-2.15-.04-3.05-.11c-.91-.07-1.74-.14-2.51-.23.18,2.93.32,5.86.41,8.78.09,2.91.13,6.25.13,10v9.22c0,3.76-.04,7.09-.13,10-.09,2.92-.23,5.78-.41,8.58.77-.09,1.6-.13,2.51-.13h6.1c.91,0,1.74.04,2.51.13-.18-2.8-.32-5.66-.41-8.58-.09-2.91-.13-6.24-.13-10Z"/>
        <path class="cls-4" d="M207.6,71.06c0-.72.02-1.29.07-1.69.04-.41.11-.86.2-1.36-2.62.31-5.22.54-7.8.68-2.57.13-5.15.2-7.73.2-.05-1.76-.07-3.84-.1-6.24-.02-2.4-.03-4.88-.03-7.46v-9.22c0-3.75.05-7.09.13-10,.09-2.92.23-5.85.41-8.78-.77.09-1.61.16-2.51.23-.9.07-1.92.11-3.05.11s-2.15-.04-3.05-.11c-.91-.07-1.74-.14-2.51-.23.18,2.93.31,5.86.41,8.78.09,2.91.13,6.25.13,10v9.22c0,3.76-.04,7.09-.13,10-.1,2.92-.23,5.78-.41,8.58.36-.04.8-.08,1.32-.1.52-.02,1.29-.03,2.31-.03h10.75c3.11,0,5.57.01,7.36.03,1.78.02,3.28.06,4.5.1-.09-.27-.16-.61-.2-1.02-.05-.4-.07-.97-.07-1.69Z"/>
        <path class="cls-4" d="M241.51,71.06c0-.72.02-1.29.06-1.69.04-.41.11-.86.2-1.36-2.62.31-5.21.54-7.8.68-2.57.13-5.15.2-7.72.2-.04-1.76-.08-3.84-.11-6.24-.02-2.4-.03-4.88-.03-7.46v-9.22c0-3.75.05-7.09.14-10,.08-2.92.22-5.85.4-8.78-.76.09-1.6.16-2.51.23-.9.07-1.91.11-3.05.11s-2.14-.04-3.05-.11c-.9-.07-1.74-.14-2.5-.23.18,2.93.31,5.86.4,8.78.09,2.91.14,6.25.14,10v9.22c0,3.76-.05,7.09-.14,10-.09,2.92-.22,5.78-.4,8.58.35-.04.8-.08,1.32-.1s1.29-.03,2.3-.03h10.75c3.12,0,5.57.01,7.36.03,1.78.02,3.29.06,4.5.1-.09-.27-.16-.61-.2-1.02-.04-.4-.06-.97-.06-1.69Z"/>
        <path class="cls-4" d="M296.05,39.83c-1.33-3.05-3.15-5.57-5.45-7.56-2.31-1.99-5.02-3.48-8.14-4.47-3.12-1-6.49-1.5-10.1-1.5-3.93,0-7.5.64-10.72,1.9-3.21,1.27-5.94,3.01-8.2,5.22-2.26,2.22-4.01,4.8-5.25,7.74-1.25,2.93-1.87,6.07-1.87,9.42,0,4.25.68,7.9,2.03,10.95,1.36,3.06,3.2,5.57,5.53,7.53,2.33,1.96,5.06,3.39,8.2,4.27,3.15.88,6.5,1.32,10.07,1.32,3.8,0,7.28-.61,10.44-1.83,3.17-1.22,5.89-2.92,8.18-5.12,2.28-2.19,4.06-4.75,5.35-7.69,1.3-2.94,1.94-6.11,1.94-9.5,0-4.07-.67-7.63-2.01-10.68ZM285.68,58.72c-.83,2.71-1.95,4.95-3.32,6.71-1.38,1.76-2.99,3.08-4.85,3.94-1.86.85-3.8,1.28-5.83,1.28-1.9,0-3.71-.34-5.42-1.01-1.72-.68-3.24-1.78-4.54-3.29-1.32-1.52-2.36-3.52-3.13-6-.77-2.49-1.15-5.54-1.15-9.16,0-2.89.33-5.62.98-8.17.66-2.55,1.62-4.78,2.88-6.68,1.27-1.9,2.82-3.4,4.65-4.51,1.83-1.11,3.9-1.66,6.2-1.66,2.17,0,4.17.44,6.01,1.32,1.82.88,3.38,2.14,4.67,3.77,1.29,1.62,2.3,3.6,3.02,5.93.72,2.33,1.09,4.96,1.09,7.9,0,3.71-.42,6.92-1.26,9.63Z"/>
        <path class="cls-4" d="M344.84,27.53c-.77,0-1.78-.12-3.05-.34.09.45.17,1.33.24,2.64s.11,2.87.13,4.68c.03,1.81.05,3.78.08,5.93.01,2.15.03,4.33.03,6.55v12.47c-5.07-5.46-10-10.85-14.82-16.14-4.81-5.29-9.69-10.66-14.61-16.13-1.27.22-2.29.34-3.05.34s-1.79-.12-3.05-.34c.04,1.62.11,3.5.2,5.62.09,2.13.14,4.75.14,7.87,0,3.44-.06,7.02-.17,10.75-.12,3.73-.25,7.19-.41,10.37-.16,3.19-.3,5.89-.44,8.11-.14,2.21-.25,3.5-.34,3.86,1.04-.09,2.07-.13,3.12-.13h1.56c.54,0,1.08.04,1.62.13-.04-.5-.09-1.16-.13-2-.05-.84-.09-1.91-.14-3.22-.04-1.31-.08-2.91-.1-4.82-.02-1.89-.03-4.2-.03-6.91v-7.87c0-1.35.01-2.69.03-4,.02-1.31.06-2.62.1-3.93,10.45,10.98,20.32,21.9,29.64,32.75.76-.09,1.65-.13,2.64-.13s1.88.04,2.78.13v-8.13c0-3.26,0-6.32.03-9.19.02-2.87.09-5.78.17-8.72.09-2.94.21-6.07.34-9.39.14-3.32.32-7.04.54-11.15-1.26.22-2.28.34-3.05.34Z"/>
        <path class="cls-4" d="M148.34,38.54c-1.27-2.82-3.05-5.07-5.36-6.74-2.31-1.68-5.05-2.86-8.24-3.56s-6.73-1.05-10.61-1.05c-2.99,0-5.4.05-7.26.16-1.85.12-3.52.18-5.02.18-1.13,0-2.14-.04-3.05-.11-.9-.07-1.74-.14-2.51-.23.19,2.93.32,5.84.41,8.75.13.29.27.57.4.86,3.18,6.1,5.28,13.39,5.81,21.23.04.59.07,1.16.09,1.74.18,4.9-.29,9.58-1.28,13.87h.13c1.77,0,3.85.02,6.24.06,2.4.05,5.29.07,8.68.07,3.21,0,6.23-.56,9.05-1.69,2.83-1.13,5.32-2.77,7.47-4.92,2.14-2.15,3.84-4.74,5.08-7.76,1.24-3.03,1.86-6.42,1.86-10.18,0-4.29-.63-7.85-1.89-10.68ZM135.04,64.89c-2.98,3.48-7.03,5.22-12.13,5.22-1.4,0-2.58-.02-3.53-.07-.95-.04-1.76-.09-2.44-.13,0-.32-.01-1.02-.03-2.1-.03-1.09-.04-2.29-.04-3.6v-27.06c0-1.35.01-2.57.04-3.66.02-1.08.03-1.78.03-2.1,1.04-.09,2.07-.17,3.09-.24,1.01-.07,2.33-.1,3.96-.1,2.35,0,4.48.42,6.38,1.25,1.89.84,3.52,2.04,4.88,3.6,1.35,1.56,2.4,3.45,3.15,5.66.75,2.22,1.12,4.73,1.12,7.53,0,7.05-1.49,12.32-4.48,15.8Z"/>
      </g>
      <path class="cls-3" d="M68.55,76.68c-2.5.93-5.31,1.44-8.36,1.44-16.69,0-32.79-15.96-39.53-31.1-4.79-10.77-5.69-22.33-1.53-32.12,2.86-6.73,7.72-11.76,13.81-14.91C8.84,3.63-4.94,25.17,1.64,51.19c2.49,9.86,7.42,18.19,16.36,25.33,8.13,6.48,18.1,10.5,27.99,10.5s17.7-3.95,22.55-10.34Z"/>
      <path class="cls-1" d="M105.89,59.85c-.02-.52-.05-1.04-.08-1.56-.48-7.05-2.37-13.6-5.22-19.08-.24-.53-.48-1.06-.73-1.6C89.51,16.35,65.95-2.61,44.03,1.83c-8.57,1.73-15.6,6.9-19.08,15.09-2.99,7.05-2.85,15.2-.19,23.08,1.17-10.31,9.21-17.68,20.83-17.68,7.01,0,14.06,2.69,19.95,7.09,3.1,2.31,5.9,5.09,8.18,8.2.83,1.12,1.59,2.29,2.29,3.5,2.37,4.3,3.94,9.38,4.42,14.86h0s-.06,2.61-.06,3.88c0,11.11-4.62,20.57-12.9,26.32-5.42,3.76-12.39,5.93-20.67,5.93-6.16,0-12.35-1.3-18.24-3.64,18.76,13.28,41.68,16.24,57.78,7.58,3.27-1.76,6.18-3.96,8.7-6.51,6.98-5.85,11.32-16.92,10.85-29.68Z"/>
      <path class="cls-2" d="M144.28,97.65l-.16.52h-6.53l.16-.52h.35c.47,0,.87-.09,1.2-.26.33-.17.55-.37.67-.59.12-.22.29-.72.52-1.48l2.98-9.85c.23-.76.35-1.24.35-1.43,0-.55-.49-.82-1.47-.82h-.41l.16-.53h6.08l-.16.53h-.32c-.36,0-.69.06-.99.19-.3.13-.51.31-.63.54-.13.23-.33.82-.62,1.77l-2.89,9.48c-.22.72-.33,1.18-.33,1.37,0,.37.16.65.49.82.32.17.69.26,1.11.26h.44Z"/>
      <path class="cls-2" d="M155.07,96.03h.58c-.46.82-.92,1.44-1.4,1.85-.48.41-.96.61-1.46.61-.34,0-.64-.1-.88-.31-.25-.21-.37-.52-.37-.93,0-.34.18-1.02.52-2.03l1.22-3.48c.33-.95.49-1.57.49-1.85,0-.25-.05-.44-.16-.56-.11-.12-.28-.18-.51-.18-.58,0-1.33.68-2.27,2.04-.93,1.36-1.73,3.14-2.4,5.33l-.56,1.83h-1.39l2.01-6.48c.37-1.19.55-1.88.55-2.05,0-.13-.02-.22-.07-.28-.05-.06-.12-.09-.22-.09-.45,0-.98.55-1.6,1.66h-.52c.95-1.73,1.85-2.59,2.71-2.59.3,0,.52.09.67.27.15.18.22.45.22.81,0,.66-.26,1.67-.77,3.04,1.38-2.75,2.72-4.12,4.02-4.12.42,0,.78.14,1.1.42.31.28.47.68.47,1.22,0,.34-.16.98-.47,1.92l-1.22,3.64c-.33.98-.49,1.53-.49,1.64,0,.14.04.25.11.33.07.07.18.11.31.11.26,0,.54-.15.83-.44.3-.29.61-.73.95-1.31Z"/>
      <path class="cls-2" d="M158.84,95.43c-.49-.27-.87-.63-1.11-1.07-.25-.44-.37-.96-.37-1.57,0-1.11.4-2.1,1.19-2.97.79-.87,1.69-1.31,2.68-1.31.31,0,.6.05.87.15.27.1.52.25.74.46.51-.42.93-.63,1.27-.63.27,0,.5.08.67.24.18.15.26.35.26.59,0,.37-.18.55-.52.55-.2,0-.39-.13-.58-.39-.12-.17-.24-.25-.37-.25-.13,0-.26.1-.4.29.3.5.46,1.1.46,1.79,0,1.32-.38,2.35-1.15,3.11-.78.76-1.72,1.21-2.83,1.36-1.65.21-2.48.65-2.48,1.32,0,.21.1.39.28.52.19.14.59.27,1.2.4,1.06.23,1.92.45,2.59.64.67.19,1.17.47,1.49.84.32.37.49.8.49,1.3,0,.78-.4,1.46-1.19,2.04-.79.59-1.92.88-3.38.88-1.38,0-2.45-.22-3.22-.67-.77-.45-1.15-1.01-1.15-1.68,0-.49.19-.91.56-1.25.37-.34.69-.51.96-.51s.4.1.4.3c0,.11-.09.25-.27.44-.31.34-.47.66-.47.98,0,.49.25.93.75,1.31.5.38,1.27.57,2.31.57,1.11,0,1.95-.19,2.53-.57s.86-.83.86-1.34c0-.4-.2-.73-.6-.98-.4-.25-1.28-.53-2.62-.85-1.17-.27-1.9-.56-2.18-.85-.29-.29-.43-.61-.43-.95,0-.48.25-.93.73-1.37.49-.43,1.17-.73,2.05-.9ZM158.61,93.82c0,.42.12.77.36,1.03.24.26.54.39.9.39.42,0,.79-.17,1.12-.5.33-.33.66-.95.97-1.86.32-.91.47-1.68.47-2.32,0-.52-.09-.92-.28-1.18-.18-.26-.46-.39-.84-.39-.67,0-1.29.55-1.85,1.66-.57,1.1-.85,2.17-.85,3.18Z"/>
      <path class="cls-2" d="M170.09,95.26h.55c-.97,2.15-2.21,3.23-3.72,3.23-.62,0-1.13-.22-1.52-.66-.39-.44-.59-1.03-.59-1.77,0-.94.25-2.01.76-3.2.51-1.19,1.22-2.21,2.16-3.07.93-.86,1.74-1.29,2.44-1.29.43,0,.75.13.97.41.22.27.33.61.33,1.01,0,.82-.41,1.61-1.23,2.37-.82.76-2.05,1.48-3.7,2.18-.21.66-.32,1.29-.32,1.88,0,.49.1.85.28,1.1.19.24.47.37.84.37,1.04,0,1.96-.85,2.75-2.56ZM166.7,93.89c.98-.44,1.87-1.05,2.65-1.83.78-.78,1.18-1.48,1.18-2.11,0-.29-.06-.5-.18-.64-.12-.14-.3-.21-.53-.21-.46,0-1,.44-1.61,1.33-.62.89-1.12,2.04-1.5,3.47Z"/>
      <path class="cls-2" d="M180.39,96.03h.58c-.46.82-.92,1.44-1.4,1.85-.47.41-.96.61-1.45.61-.34,0-.64-.1-.89-.31-.25-.21-.37-.52-.37-.93,0-.34.17-1.02.53-2.03l1.22-3.48c.33-.95.49-1.57.49-1.85,0-.25-.05-.44-.17-.56-.11-.12-.28-.18-.51-.18-.58,0-1.33.68-2.27,2.04-.93,1.36-1.73,3.14-2.4,5.33l-.56,1.83h-1.39l2.01-6.48c.37-1.19.55-1.88.55-2.05,0-.13-.02-.22-.07-.28-.05-.06-.12-.09-.22-.09-.45,0-.98.55-1.6,1.66h-.52c.95-1.73,1.85-2.59,2.7-2.59.3,0,.52.09.67.27.15.18.22.45.22.81,0,.66-.25,1.67-.76,3.04,1.38-2.75,2.72-4.12,4.02-4.12.41,0,.78.14,1.1.42.31.28.46.68.46,1.22,0,.34-.15.98-.46,1.92l-1.22,3.64c-.33.98-.49,1.53-.49,1.64,0,.14.04.25.11.33.08.07.18.11.32.11.26,0,.54-.15.83-.44.3-.29.61-.73.95-1.31Z"/>
      <path class="cls-2" d="M186.26,95.67h.55c-.36.74-.82,1.39-1.4,1.96-.58.57-1.13.85-1.66.85-.36,0-.67-.13-.94-.38-.27-.25-.4-.63-.4-1.12,0-.4.21-1.17.64-2.32l1.31-3.48c.3-.81.46-1.31.46-1.48,0-.15-.04-.27-.11-.34-.07-.07-.18-.11-.33-.11-.3,0-.65.23-1.06.69-.41.46-.69.88-.86,1.25h-.55c.42-.83.9-1.48,1.43-1.96.54-.48,1.04-.72,1.5-.72.36,0,.65.12.88.37.23.25.34.56.34.96s-.2,1.14-.6,2.21l-1.1,2.97c-.4,1.07-.61,1.75-.61,2.02,0,.22.04.39.13.5.09.11.22.17.38.17.56,0,1.22-.67,1.98-2.02ZM185.41,83.47c0-.27.1-.51.29-.7.19-.19.43-.29.7-.29s.51.1.7.29c.19.2.29.43.29.7s-.1.51-.29.71c-.19.2-.43.29-.7.29s-.52-.1-.71-.3c-.19-.2-.28-.43-.28-.7Z"/>
      <path class="cls-2" d="M192.74,95.26h.55c-.97,2.15-2.21,3.23-3.72,3.23-.62,0-1.13-.22-1.52-.66-.39-.44-.59-1.03-.59-1.77,0-.94.25-2.01.76-3.2.51-1.19,1.23-2.21,2.16-3.07.93-.86,1.74-1.29,2.44-1.29.43,0,.75.13.97.41.22.27.33.61.33,1.01,0,.82-.41,1.61-1.23,2.37-.82.76-2.05,1.48-3.7,2.18-.21.66-.32,1.29-.32,1.88,0,.49.1.85.29,1.1.19.24.47.37.84.37,1.04,0,1.96-.85,2.75-2.56ZM189.35,93.89c.98-.44,1.87-1.05,2.65-1.83.79-.78,1.18-1.48,1.18-2.11,0-.29-.06-.5-.18-.64-.12-.14-.29-.21-.53-.21-.46,0-.99.44-1.61,1.33-.62.89-1.12,2.04-1.5,3.47Z"/>
      <path class="cls-2" d="M195.07,91.59h-.5c.32-.85.72-1.58,1.2-2.18.48-.6.96-.9,1.43-.9.33,0,.57.13.73.39.16.26.24.66.24,1.19,0,.66-.17,1.61-.51,2.83.04-.07.17-.35.38-.82.56-1.27,1.06-2.19,1.48-2.75.43-.56.85-.84,1.28-.84.27,0,.48.08.64.25.16.17.24.37.24.6s-.07.42-.2.56c-.13.15-.29.22-.47.22-.21,0-.42-.12-.63-.38-.08-.1-.17-.15-.25-.15-.38,0-.97.91-1.76,2.74-.79,1.83-1.43,3.55-1.92,5.16l-.25.82h-1.37l1.81-6.05c.34-1.16.51-1.94.51-2.35,0-.22-.03-.38-.08-.49-.06-.11-.14-.16-.26-.16-.25,0-.56.27-.94.81-.37.54-.64,1.03-.8,1.48Z"/>
      <path class="cls-2" d="M205.73,95.67h.55c-.36.74-.82,1.39-1.4,1.96-.58.57-1.13.85-1.66.85-.36,0-.67-.13-.94-.38-.27-.25-.41-.63-.41-1.12,0-.4.21-1.17.64-2.32l1.31-3.48c.3-.81.46-1.31.46-1.48,0-.15-.04-.27-.11-.34-.07-.07-.18-.11-.33-.11-.3,0-.65.23-1.06.69-.41.46-.69.88-.86,1.25h-.55c.42-.83.9-1.48,1.43-1.96.54-.48,1.04-.72,1.5-.72.36,0,.65.12.88.37.23.25.34.56.34.96s-.2,1.14-.6,2.21l-1.1,2.97c-.4,1.07-.61,1.75-.61,2.02,0,.22.04.39.13.5.09.11.22.17.38.17.56,0,1.22-.67,1.98-2.02ZM204.89,83.47c0-.27.1-.51.29-.7.19-.19.43-.29.7-.29s.51.1.7.29c.2.2.29.43.29.7s-.1.51-.29.71c-.19.2-.43.29-.7.29s-.52-.1-.71-.3c-.19-.2-.28-.43-.28-.7Z"/>
      <path class="cls-2" d="M212.22,95.26h.55c-.97,2.15-2.21,3.23-3.72,3.23-.62,0-1.13-.22-1.52-.66-.39-.44-.59-1.03-.59-1.77,0-.94.25-2.01.76-3.2.51-1.19,1.23-2.21,2.16-3.07.93-.86,1.74-1.29,2.44-1.29.42,0,.75.13.97.41.22.27.33.61.33,1.01,0,.82-.41,1.61-1.23,2.37-.82.76-2.05,1.48-3.7,2.18-.21.66-.32,1.29-.32,1.88,0,.49.1.85.29,1.1.19.24.47.37.84.37,1.04,0,1.96-.85,2.75-2.56ZM208.83,93.89c.98-.44,1.87-1.05,2.65-1.83.78-.78,1.18-1.48,1.18-2.11,0-.29-.06-.5-.18-.64-.12-.14-.29-.21-.53-.21-.46,0-.99.44-1.61,1.33-.62.89-1.12,2.04-1.5,3.47Z"/>
      <path class="cls-2" d="M228.13,96.1h.56c-.34.62-.77,1.18-1.29,1.66-.52.49-1,.73-1.43.73-.4,0-.71-.12-.91-.37-.21-.24-.31-.6-.31-1.08,0-.22.02-.42.06-.61-1.08,1.37-2.08,2.05-3,2.05-.52,0-.96-.21-1.32-.63-.36-.42-.55-1.02-.55-1.81,0-1.1.3-2.29.91-3.56.61-1.27,1.36-2.25,2.26-2.94.9-.7,1.68-1.05,2.34-1.05.34,0,.63.08.87.24.24.16.43.4.58.72l1.39-4.6c.17-.55.25-.88.25-.99,0-.18-.05-.31-.15-.39-.1-.07-.36-.11-.76-.11h-.32l.15-.48c1.1,0,1.98-.14,2.64-.41h.28l-3.65,12.02c-.45,1.48-.67,2.36-.67,2.62,0,.19.04.33.11.43.07.1.18.15.32.15.23,0,.48-.13.76-.4.28-.27.58-.67.91-1.2ZM221.23,96.57c0,.43.08.75.22.97.15.22.37.32.66.32.51,0,1.1-.36,1.77-1.07.67-.71,1.29-1.88,1.85-3.51.56-1.63.84-2.66.84-3.1,0-.28-.09-.54-.28-.76-.19-.23-.44-.34-.75-.34-.49,0-1.01.29-1.56.87-.54.58-1.14,1.59-1.78,3.03-.64,1.43-.96,2.63-.96,3.6Z"/>
      <path class="cls-2" d="M231.31,89.22v-.46c1.27-.17,2.19-.6,2.75-1.27s.84-1.23.84-1.69c0-.34-.15-.51-.44-.51-.05,0-.11,0-.17.01-.15.02-.26.02-.31.02-.26,0-.5-.09-.73-.28-.23-.19-.35-.46-.35-.84,0-.39.12-.7.36-.92.24-.22.52-.33.85-.33.47,0,.85.19,1.13.58.29.39.43.89.43,1.51,0,1-.39,1.92-1.16,2.77-.78.85-1.84,1.32-3.2,1.4Z"/>
      <path class="cls-2" d="M248.12,94.26h.5l-1.2,3.91h-12.95l.16-.52h.33c.47,0,.87-.09,1.19-.26.32-.17.55-.37.67-.59.12-.22.29-.72.52-1.48l2.99-9.85c.23-.76.34-1.24.34-1.44,0-.54-.49-.81-1.47-.81h-.46l.16-.53h11.03l.06,3.49h-.48c-.23-.91-.53-1.59-.9-2.04-.37-.44-.75-.71-1.15-.8-.39-.09-1.19-.13-2.39-.13h-2.01l-2,6.62h1.12c1.06,0,1.87-.15,2.42-.45.55-.3,1.06-.99,1.53-2.08h.53l-1.84,6.07h-.52c.08-.4.12-.79.12-1.16,0-.62-.08-1.06-.23-1.3-.16-.24-.36-.4-.62-.46-.26-.07-.72-.1-1.39-.1h-1.27l-1.45,4.81c-.23.77-.34,1.23-.34,1.38,0,.41.18.7.53.87.36.17.97.25,1.84.25h.9c1.57,0,2.77-.27,3.62-.83.85-.55,1.55-1.41,2.1-2.58Z"/>
      <path class="cls-2" d="M258.07,96.03h.58c-.46.82-.92,1.44-1.4,1.85-.48.41-.96.61-1.46.61-.34,0-.64-.1-.89-.31-.25-.21-.37-.52-.37-.93,0-.34.18-1.02.53-2.03l1.22-3.48c.33-.95.49-1.57.49-1.85,0-.25-.05-.44-.16-.56-.11-.12-.28-.18-.51-.18-.58,0-1.33.68-2.27,2.04-.93,1.36-1.73,3.14-2.4,5.33l-.56,1.83h-1.39l2.01-6.48c.37-1.19.55-1.88.55-2.05,0-.13-.02-.22-.07-.28-.05-.06-.12-.09-.22-.09-.45,0-.98.55-1.6,1.66h-.52c.95-1.73,1.85-2.59,2.7-2.59.3,0,.52.09.67.27.15.18.22.45.22.81,0,.66-.25,1.67-.76,3.04,1.38-2.75,2.71-4.12,4.02-4.12.42,0,.78.14,1.09.42.31.28.47.68.47,1.22,0,.34-.16.98-.47,1.92l-1.22,3.64c-.33.98-.49,1.53-.49,1.64,0,.14.04.25.11.33.07.07.18.11.31.11.26,0,.54-.15.83-.44.29-.29.61-.73.95-1.31Z"/>
      <path class="cls-2" d="M265.43,88.83l-.16.5h-1.71l-1.51,4.99c-.5,1.63-.75,2.58-.75,2.85,0,.18.04.32.12.42.08.09.2.14.35.14.27,0,.63-.26,1.07-.78.44-.52.84-1.17,1.19-1.95h.5c-.46,1.13-.99,2-1.59,2.59-.6.6-1.14.9-1.64.9-.39,0-.7-.14-.93-.41-.23-.27-.35-.62-.35-1.04,0-.36.24-1.31.71-2.85l1.47-4.86h-1.57l.16-.5h1.56l1.05-3.46h1.37l-1.05,3.46h1.71Z"/>
      <path class="cls-2" d="M265.68,91.59h-.5c.32-.85.72-1.58,1.2-2.18.48-.6.96-.9,1.43-.9.33,0,.57.13.73.39.16.26.24.66.24,1.19,0,.66-.17,1.61-.51,2.83.05-.07.17-.35.38-.82.56-1.27,1.06-2.19,1.48-2.75.43-.56.85-.84,1.28-.84.27,0,.48.08.64.25.16.17.24.37.24.6s-.07.42-.2.56c-.13.15-.29.22-.47.22-.21,0-.41-.12-.63-.38-.08-.1-.17-.15-.25-.15-.38,0-.97.91-1.76,2.74-.79,1.83-1.43,3.55-1.92,5.16l-.25.82h-1.37l1.81-6.05c.34-1.16.51-1.94.51-2.35,0-.22-.03-.38-.08-.49-.06-.11-.14-.16-.26-.16-.25,0-.56.27-.94.81-.37.54-.64,1.03-.8,1.48Z"/>
      <path class="cls-2" d="M277,95.26h.55c-.97,2.15-2.2,3.23-3.72,3.23-.62,0-1.13-.22-1.52-.66-.39-.44-.59-1.03-.59-1.77,0-.94.25-2.01.76-3.2.51-1.19,1.23-2.21,2.16-3.07.93-.86,1.74-1.29,2.44-1.29.43,0,.75.13.97.41.22.27.33.61.33,1.01,0,.82-.41,1.61-1.23,2.37-.82.76-2.05,1.48-3.7,2.18-.21.66-.32,1.29-.32,1.88,0,.49.1.85.29,1.1.19.24.47.37.84.37,1.04,0,1.96-.85,2.75-2.56ZM273.61,93.89c.98-.44,1.87-1.05,2.65-1.83.78-.78,1.18-1.48,1.18-2.11,0-.29-.06-.5-.18-.64-.12-.14-.29-.21-.53-.21-.46,0-.99.44-1.61,1.33-.62.89-1.12,2.04-1.5,3.47Z"/>
      <path class="cls-2" d="M279.58,93.47h-.52l2.16-3.46c.63-1,1.05-1.72,1.24-2.13.2-.42.43-1.05.68-1.9l.16-.55h1.37l-.78,2.56-.96,2.69c1.04-1.45,2.02-2.18,2.94-2.18.56,0,1.04.26,1.44.78.4.52.59,1.17.59,1.96,0,.92-.24,1.97-.71,3.16-.47,1.19-1.14,2.16-2,2.93-.86.77-1.73,1.15-2.58,1.15s-1.34-.39-1.56-1.16l-1.33,4.41c-.17.55-.25.88-.25,1,0,.13.06.24.17.33.11.09.43.14.96.14h.51l-.16.5h-4.77l.16-.5h.25c.67,0,1.07-.05,1.2-.14.13-.09.33-.57.59-1.43l2.37-7.84c.5-1.64,1.08-3.31,1.73-5.01-.08.11-.28.45-.61,1.03-.04.06-.16.25-.37.58l-1.94,3.06ZM281.69,95.22c-.2.68-.31,1.16-.31,1.46,0,.37.1.69.31.95.21.26.5.39.87.39.56,0,1.12-.32,1.71-.95.58-.63,1.11-1.69,1.6-3.17.48-1.48.72-2.59.72-3.34,0-.49-.08-.85-.23-1.1-.15-.24-.38-.37-.68-.37-.41,0-.96.3-1.64.9-.68.6-1.31,1.84-1.89,3.73l-.46,1.49Z"/>
      <path class="cls-2" d="M289.49,91.59h-.5c.32-.85.72-1.58,1.2-2.18.48-.6.96-.9,1.43-.9.33,0,.57.13.73.39.16.26.24.66.24,1.19,0,.66-.17,1.61-.51,2.83.05-.07.17-.35.38-.82.56-1.27,1.06-2.19,1.48-2.75.43-.56.85-.84,1.28-.84.27,0,.48.08.64.25.16.17.24.37.24.6s-.07.42-.2.56c-.13.15-.29.22-.47.22-.21,0-.42-.12-.63-.38-.08-.1-.17-.15-.25-.15-.38,0-.97.91-1.76,2.74-.79,1.83-1.43,3.55-1.92,5.16l-.25.82h-1.37l1.81-6.05c.34-1.16.51-1.94.51-2.35,0-.22-.03-.38-.08-.49-.06-.11-.14-.16-.26-.16-.25,0-.56.27-.94.81-.38.54-.65,1.03-.8,1.48Z"/>
      <path class="cls-2" d="M300.16,95.67h.55c-.36.74-.82,1.39-1.4,1.96-.58.57-1.13.85-1.66.85-.36,0-.67-.13-.94-.38-.27-.25-.4-.63-.4-1.12,0-.4.21-1.17.64-2.32l1.31-3.48c.31-.81.46-1.31.46-1.48,0-.15-.04-.27-.11-.34-.07-.07-.18-.11-.33-.11-.3,0-.65.23-1.06.69-.41.46-.69.88-.86,1.25h-.55c.42-.83.9-1.48,1.43-1.96.54-.48,1.04-.72,1.5-.72.36,0,.65.12.88.37.23.25.34.56.34.96s-.2,1.14-.6,2.21l-1.1,2.97c-.4,1.07-.61,1.75-.61,2.02,0,.22.04.39.13.5.09.11.22.17.38.17.56,0,1.22-.67,1.98-2.02ZM299.32,83.47c0-.27.1-.51.29-.7.19-.19.43-.29.7-.29s.51.1.7.29c.2.2.29.43.29.7s-.09.51-.29.71c-.19.2-.43.29-.7.29s-.52-.1-.71-.3c-.19-.2-.28-.43-.28-.7Z"/>
      <path class="cls-2" d="M306.57,95.66c0,.71-.27,1.36-.82,1.95-.54.59-1.34.88-2.4.88-.78,0-1.37-.17-1.76-.52-.39-.34-.59-.72-.59-1.11,0-.21.06-.39.18-.55.12-.15.27-.23.45-.23.41,0,.61.22.61.65,0,.1-.02.24-.07.42-.03.08-.05.15-.05.19,0,.18.12.34.35.47.24.13.52.2.84.2.51,0,.97-.16,1.39-.48.42-.32.63-.77.63-1.34,0-.5-.29-1.27-.88-2.34-.68-1.23-1.03-2.14-1.03-2.71,0-.73.29-1.35.87-1.85.58-.5,1.24-.75,1.98-.75.54,0,1,.14,1.39.41.38.27.58.57.58.88,0,.4-.17.6-.5.6-.25,0-.44-.22-.55-.67-.12-.49-.45-.74-.99-.74-.43,0-.81.12-1.13.35-.32.23-.48.54-.48.92,0,.52.25,1.23.76,2.14.48.82.8,1.45.96,1.88.16.43.25.88.25,1.33Z"/>
      <path class="cls-2" d="M313.94,95.26h.55c-.97,2.15-2.21,3.23-3.72,3.23-.62,0-1.13-.22-1.52-.66-.39-.44-.59-1.03-.59-1.77,0-.94.25-2.01.76-3.2.51-1.19,1.23-2.21,2.16-3.07.93-.86,1.74-1.29,2.44-1.29.43,0,.75.13.97.41.22.27.33.61.33,1.01,0,.82-.41,1.61-1.23,2.37-.82.76-2.05,1.48-3.7,2.18-.21.66-.32,1.29-.32,1.88,0,.49.1.85.29,1.1.19.24.47.37.84.37,1.04,0,1.96-.85,2.75-2.56ZM310.55,93.89c.98-.44,1.87-1.05,2.65-1.83.79-.78,1.18-1.48,1.18-2.11,0-.29-.06-.5-.18-.64-.12-.14-.29-.21-.53-.21-.46,0-.99.44-1.61,1.33-.62.89-1.12,2.04-1.5,3.47Z"/>
      <path class="cls-2" d="M320.94,95.66c0,.71-.27,1.36-.82,1.95-.54.59-1.34.88-2.4.88-.78,0-1.37-.17-1.76-.52-.39-.34-.59-.72-.59-1.11,0-.21.06-.39.18-.55.12-.15.27-.23.45-.23.41,0,.61.22.61.65,0,.1-.02.24-.07.42-.03.08-.04.15-.04.19,0,.18.12.34.35.47.24.13.52.2.84.2.51,0,.97-.16,1.39-.48.42-.32.63-.77.63-1.34,0-.5-.29-1.27-.88-2.34-.68-1.23-1.03-2.14-1.03-2.71,0-.73.29-1.35.87-1.85.58-.5,1.24-.75,1.97-.75.54,0,1,.14,1.39.41.38.27.58.57.58.88,0,.4-.17.6-.5.6-.25,0-.44-.22-.55-.67-.12-.49-.45-.74-.99-.74-.43,0-.81.12-1.13.35-.32.23-.48.54-.48.92,0,.52.25,1.23.76,2.14.48.82.8,1.45.96,1.88.16.43.24.88.24,1.33Z"/>
    </g>
  </g>
</svg>